<mxfile host="app.diagrams.net" agent="Mozilla/5.0 (Windows NT 10.0; Win64; x64) AppleWebKit/537.36 (KHTML, like Gecko) Chrome/136.0.0.0 Safari/537.36" version="27.0.2">
  <diagram id="C5RBs43oDa-KdzZeNtuy" name="Page-1">
    <mxGraphModel dx="1895" dy="1020" grid="1" gridSize="10" guides="1" tooltips="1" connect="1" arrows="1" fold="1" page="1" pageScale="1" pageWidth="827" pageHeight="1169" math="0" shadow="0">
      <root>
        <mxCell id="WIyWlLk6GJQsqaUBKTNV-0" />
        <mxCell id="WIyWlLk6GJQsqaUBKTNV-1" parent="WIyWlLk6GJQsqaUBKTNV-0" />
        <mxCell id="4D4CAw_ETBP6nO-mCrI7-2" style="edgeStyle=orthogonalEdgeStyle;rounded=0;orthogonalLoop=1;jettySize=auto;html=1;" edge="1" parent="WIyWlLk6GJQsqaUBKTNV-1" source="4D4CAw_ETBP6nO-mCrI7-0" target="4D4CAw_ETBP6nO-mCrI7-1">
          <mxGeometry relative="1" as="geometry" />
        </mxCell>
        <mxCell id="4D4CAw_ETBP6nO-mCrI7-0" value="start&lt;div&gt;blackjack.py&lt;/div&gt;" style="rounded=1;whiteSpace=wrap;html=1;" vertex="1" parent="WIyWlLk6GJQsqaUBKTNV-1">
          <mxGeometry x="354" y="50" width="120" height="60" as="geometry" />
        </mxCell>
        <mxCell id="4D4CAw_ETBP6nO-mCrI7-4" style="edgeStyle=orthogonalEdgeStyle;rounded=0;orthogonalLoop=1;jettySize=auto;html=1;entryX=0.5;entryY=0;entryDx=0;entryDy=0;" edge="1" parent="WIyWlLk6GJQsqaUBKTNV-1" source="4D4CAw_ETBP6nO-mCrI7-1" target="4D4CAw_ETBP6nO-mCrI7-3">
          <mxGeometry relative="1" as="geometry" />
        </mxCell>
        <mxCell id="4D4CAw_ETBP6nO-mCrI7-1" value="fra board.py&lt;div&gt;byg knapper og GUI flade&lt;/div&gt;" style="whiteSpace=wrap;html=1;" vertex="1" parent="WIyWlLk6GJQsqaUBKTNV-1">
          <mxGeometry x="354" y="140" width="120" height="60" as="geometry" />
        </mxCell>
        <mxCell id="4D4CAw_ETBP6nO-mCrI7-9" style="edgeStyle=orthogonalEdgeStyle;rounded=0;orthogonalLoop=1;jettySize=auto;html=1;entryX=0.5;entryY=0;entryDx=0;entryDy=0;" edge="1" parent="WIyWlLk6GJQsqaUBKTNV-1" source="4D4CAw_ETBP6nO-mCrI7-3" target="4D4CAw_ETBP6nO-mCrI7-7">
          <mxGeometry relative="1" as="geometry" />
        </mxCell>
        <mxCell id="4D4CAw_ETBP6nO-mCrI7-3" value="lav variable med kort spil billeder" style="rounded=0;whiteSpace=wrap;html=1;" vertex="1" parent="WIyWlLk6GJQsqaUBKTNV-1">
          <mxGeometry x="354" y="230" width="120" height="60" as="geometry" />
        </mxCell>
        <mxCell id="4D4CAw_ETBP6nO-mCrI7-11" style="edgeStyle=orthogonalEdgeStyle;rounded=0;orthogonalLoop=1;jettySize=auto;html=1;entryX=0.5;entryY=0;entryDx=0;entryDy=0;" edge="1" parent="WIyWlLk6GJQsqaUBKTNV-1" source="4D4CAw_ETBP6nO-mCrI7-5" target="4D4CAw_ETBP6nO-mCrI7-10">
          <mxGeometry relative="1" as="geometry" />
        </mxCell>
        <mxCell id="4D4CAw_ETBP6nO-mCrI7-5" value="giv spiller og dealer 2 kort hver og fjern fra deck" style="rounded=0;whiteSpace=wrap;html=1;" vertex="1" parent="WIyWlLk6GJQsqaUBKTNV-1">
          <mxGeometry x="354" y="390" width="120" height="60" as="geometry" />
        </mxCell>
        <mxCell id="4D4CAw_ETBP6nO-mCrI7-8" style="edgeStyle=orthogonalEdgeStyle;rounded=0;orthogonalLoop=1;jettySize=auto;html=1;entryX=0.5;entryY=0;entryDx=0;entryDy=0;" edge="1" parent="WIyWlLk6GJQsqaUBKTNV-1" source="4D4CAw_ETBP6nO-mCrI7-7" target="4D4CAw_ETBP6nO-mCrI7-5">
          <mxGeometry relative="1" as="geometry" />
        </mxCell>
        <mxCell id="4D4CAw_ETBP6nO-mCrI7-7" value="lav en liste deck med alle mulige kort" style="rounded=0;whiteSpace=wrap;html=1;" vertex="1" parent="WIyWlLk6GJQsqaUBKTNV-1">
          <mxGeometry x="354" y="310" width="120" height="60" as="geometry" />
        </mxCell>
        <mxCell id="4D4CAw_ETBP6nO-mCrI7-13" style="edgeStyle=orthogonalEdgeStyle;rounded=0;orthogonalLoop=1;jettySize=auto;html=1;entryX=0.5;entryY=0;entryDx=0;entryDy=0;" edge="1" parent="WIyWlLk6GJQsqaUBKTNV-1" source="4D4CAw_ETBP6nO-mCrI7-10" target="4D4CAw_ETBP6nO-mCrI7-12">
          <mxGeometry relative="1" as="geometry" />
        </mxCell>
        <mxCell id="4D4CAw_ETBP6nO-mCrI7-10" value="tjek om hit knap&amp;nbsp;&lt;div&gt;eller tastatur [h]&lt;div&gt;&amp;nbsp;er trykket&lt;/div&gt;&lt;/div&gt;" style="shape=parallelogram;perimeter=parallelogramPerimeter;whiteSpace=wrap;html=1;fixedSize=1;" vertex="1" parent="WIyWlLk6GJQsqaUBKTNV-1">
          <mxGeometry x="331" y="490" width="166" height="60" as="geometry" />
        </mxCell>
        <mxCell id="4D4CAw_ETBP6nO-mCrI7-15" style="edgeStyle=orthogonalEdgeStyle;rounded=0;orthogonalLoop=1;jettySize=auto;html=1;entryX=0.5;entryY=0;entryDx=0;entryDy=0;" edge="1" parent="WIyWlLk6GJQsqaUBKTNV-1" source="4D4CAw_ETBP6nO-mCrI7-12" target="4D4CAw_ETBP6nO-mCrI7-14">
          <mxGeometry relative="1" as="geometry" />
        </mxCell>
        <mxCell id="4D4CAw_ETBP6nO-mCrI7-28" style="edgeStyle=orthogonalEdgeStyle;rounded=0;orthogonalLoop=1;jettySize=auto;html=1;entryX=0;entryY=0.5;entryDx=0;entryDy=0;" edge="1" parent="WIyWlLk6GJQsqaUBKTNV-1" source="4D4CAw_ETBP6nO-mCrI7-12" target="4D4CAw_ETBP6nO-mCrI7-27">
          <mxGeometry relative="1" as="geometry" />
        </mxCell>
        <mxCell id="4D4CAw_ETBP6nO-mCrI7-12" value="er trykket" style="rhombus;whiteSpace=wrap;html=1;" vertex="1" parent="WIyWlLk6GJQsqaUBKTNV-1">
          <mxGeometry x="334" y="585" width="160" height="80" as="geometry" />
        </mxCell>
        <mxCell id="4D4CAw_ETBP6nO-mCrI7-18" style="edgeStyle=orthogonalEdgeStyle;rounded=0;orthogonalLoop=1;jettySize=auto;html=1;entryX=0.5;entryY=0;entryDx=0;entryDy=0;" edge="1" parent="WIyWlLk6GJQsqaUBKTNV-1" source="4D4CAw_ETBP6nO-mCrI7-14" target="4D4CAw_ETBP6nO-mCrI7-17">
          <mxGeometry relative="1" as="geometry" />
        </mxCell>
        <mxCell id="4D4CAw_ETBP6nO-mCrI7-14" value="tjek om stand knap&amp;nbsp;&lt;div&gt;eller tastatur [s] er trykket&lt;/div&gt;" style="shape=parallelogram;perimeter=parallelogramPerimeter;whiteSpace=wrap;html=1;fixedSize=1;" vertex="1" parent="WIyWlLk6GJQsqaUBKTNV-1">
          <mxGeometry x="324" y="710" width="180" height="60" as="geometry" />
        </mxCell>
        <mxCell id="4D4CAw_ETBP6nO-mCrI7-16" value="nej" style="text;html=1;align=center;verticalAlign=middle;resizable=0;points=[];autosize=1;strokeColor=none;fillColor=none;" vertex="1" parent="WIyWlLk6GJQsqaUBKTNV-1">
          <mxGeometry x="406" y="660" width="40" height="30" as="geometry" />
        </mxCell>
        <mxCell id="4D4CAw_ETBP6nO-mCrI7-23" style="edgeStyle=orthogonalEdgeStyle;rounded=0;orthogonalLoop=1;jettySize=auto;html=1;entryX=0.5;entryY=0;entryDx=0;entryDy=0;" edge="1" parent="WIyWlLk6GJQsqaUBKTNV-1" source="4D4CAw_ETBP6nO-mCrI7-17" target="4D4CAw_ETBP6nO-mCrI7-20">
          <mxGeometry relative="1" as="geometry" />
        </mxCell>
        <mxCell id="4D4CAw_ETBP6nO-mCrI7-46" style="edgeStyle=orthogonalEdgeStyle;rounded=0;orthogonalLoop=1;jettySize=auto;html=1;entryX=0.5;entryY=0;entryDx=0;entryDy=0;" edge="1" parent="WIyWlLk6GJQsqaUBKTNV-1" source="4D4CAw_ETBP6nO-mCrI7-17" target="4D4CAw_ETBP6nO-mCrI7-45">
          <mxGeometry relative="1" as="geometry">
            <Array as="points">
              <mxPoint x="530" y="860" />
              <mxPoint x="530" y="663" />
              <mxPoint x="730" y="663" />
            </Array>
          </mxGeometry>
        </mxCell>
        <mxCell id="4D4CAw_ETBP6nO-mCrI7-17" value="er trykket" style="rhombus;whiteSpace=wrap;html=1;" vertex="1" parent="WIyWlLk6GJQsqaUBKTNV-1">
          <mxGeometry x="341" y="820" width="146" height="80" as="geometry" />
        </mxCell>
        <mxCell id="4D4CAw_ETBP6nO-mCrI7-22" style="edgeStyle=orthogonalEdgeStyle;rounded=0;orthogonalLoop=1;jettySize=auto;html=1;" edge="1" parent="WIyWlLk6GJQsqaUBKTNV-1" source="4D4CAw_ETBP6nO-mCrI7-20" target="4D4CAw_ETBP6nO-mCrI7-21">
          <mxGeometry relative="1" as="geometry" />
        </mxCell>
        <mxCell id="4D4CAw_ETBP6nO-mCrI7-36" style="edgeStyle=orthogonalEdgeStyle;rounded=0;orthogonalLoop=1;jettySize=auto;html=1;entryX=0;entryY=0.5;entryDx=0;entryDy=0;" edge="1" parent="WIyWlLk6GJQsqaUBKTNV-1" source="4D4CAw_ETBP6nO-mCrI7-20" target="4D4CAw_ETBP6nO-mCrI7-10">
          <mxGeometry relative="1" as="geometry">
            <Array as="points">
              <mxPoint x="180" y="980" />
              <mxPoint x="180" y="520" />
            </Array>
          </mxGeometry>
        </mxCell>
        <mxCell id="4D4CAw_ETBP6nO-mCrI7-20" value="running == true" style="rhombus;whiteSpace=wrap;html=1;" vertex="1" parent="WIyWlLk6GJQsqaUBKTNV-1">
          <mxGeometry x="336" y="940" width="156" height="80" as="geometry" />
        </mxCell>
        <mxCell id="4D4CAw_ETBP6nO-mCrI7-21" value="luk&amp;nbsp;&lt;div&gt;blackjack.py&lt;/div&gt;" style="rounded=1;whiteSpace=wrap;html=1;" vertex="1" parent="WIyWlLk6GJQsqaUBKTNV-1">
          <mxGeometry x="354" y="1090" width="120" height="60" as="geometry" />
        </mxCell>
        <mxCell id="4D4CAw_ETBP6nO-mCrI7-24" value="nej" style="text;html=1;align=center;verticalAlign=middle;resizable=0;points=[];autosize=1;strokeColor=none;fillColor=none;" vertex="1" parent="WIyWlLk6GJQsqaUBKTNV-1">
          <mxGeometry x="405" y="1019" width="40" height="30" as="geometry" />
        </mxCell>
        <mxCell id="4D4CAw_ETBP6nO-mCrI7-25" value="nej" style="text;html=1;align=center;verticalAlign=middle;resizable=0;points=[];autosize=1;strokeColor=none;fillColor=none;" vertex="1" parent="WIyWlLk6GJQsqaUBKTNV-1">
          <mxGeometry x="404" y="893" width="40" height="30" as="geometry" />
        </mxCell>
        <mxCell id="4D4CAw_ETBP6nO-mCrI7-31" style="edgeStyle=orthogonalEdgeStyle;rounded=0;orthogonalLoop=1;jettySize=auto;html=1;entryX=0.5;entryY=0;entryDx=0;entryDy=0;" edge="1" parent="WIyWlLk6GJQsqaUBKTNV-1" source="4D4CAw_ETBP6nO-mCrI7-27" target="4D4CAw_ETBP6nO-mCrI7-30">
          <mxGeometry relative="1" as="geometry" />
        </mxCell>
        <mxCell id="4D4CAw_ETBP6nO-mCrI7-27" value="giv spiller 1 kort mere" style="rounded=0;whiteSpace=wrap;html=1;" vertex="1" parent="WIyWlLk6GJQsqaUBKTNV-1">
          <mxGeometry x="870" y="595" width="120" height="60" as="geometry" />
        </mxCell>
        <mxCell id="4D4CAw_ETBP6nO-mCrI7-29" value="ja" style="text;html=1;align=center;verticalAlign=middle;resizable=0;points=[];autosize=1;strokeColor=none;fillColor=none;" vertex="1" parent="WIyWlLk6GJQsqaUBKTNV-1">
          <mxGeometry x="515" y="598" width="30" height="30" as="geometry" />
        </mxCell>
        <mxCell id="4D4CAw_ETBP6nO-mCrI7-35" style="edgeStyle=orthogonalEdgeStyle;rounded=0;orthogonalLoop=1;jettySize=auto;html=1;entryX=1;entryY=0.5;entryDx=0;entryDy=0;" edge="1" parent="WIyWlLk6GJQsqaUBKTNV-1" source="4D4CAw_ETBP6nO-mCrI7-30" target="4D4CAw_ETBP6nO-mCrI7-10">
          <mxGeometry relative="1" as="geometry">
            <Array as="points">
              <mxPoint x="1070" y="723" />
              <mxPoint x="1070" y="520" />
            </Array>
          </mxGeometry>
        </mxCell>
        <mxCell id="4D4CAw_ETBP6nO-mCrI7-42" style="edgeStyle=orthogonalEdgeStyle;rounded=0;orthogonalLoop=1;jettySize=auto;html=1;" edge="1" parent="WIyWlLk6GJQsqaUBKTNV-1" source="4D4CAw_ETBP6nO-mCrI7-30" target="4D4CAw_ETBP6nO-mCrI7-40">
          <mxGeometry relative="1" as="geometry" />
        </mxCell>
        <mxCell id="4D4CAw_ETBP6nO-mCrI7-30" value="spiller score under 21" style="rhombus;whiteSpace=wrap;html=1;" vertex="1" parent="WIyWlLk6GJQsqaUBKTNV-1">
          <mxGeometry x="860" y="683" width="140" height="80" as="geometry" />
        </mxCell>
        <mxCell id="4D4CAw_ETBP6nO-mCrI7-32" value="ja" style="text;html=1;align=center;verticalAlign=middle;resizable=0;points=[];autosize=1;strokeColor=none;fillColor=none;" vertex="1" parent="WIyWlLk6GJQsqaUBKTNV-1">
          <mxGeometry x="307" y="954" width="30" height="30" as="geometry" />
        </mxCell>
        <mxCell id="4D4CAw_ETBP6nO-mCrI7-37" value="ja" style="text;html=1;align=center;verticalAlign=middle;resizable=0;points=[];autosize=1;strokeColor=none;fillColor=none;" vertex="1" parent="WIyWlLk6GJQsqaUBKTNV-1">
          <mxGeometry x="1007" y="698" width="30" height="30" as="geometry" />
        </mxCell>
        <mxCell id="4D4CAw_ETBP6nO-mCrI7-81" style="edgeStyle=orthogonalEdgeStyle;rounded=0;orthogonalLoop=1;jettySize=auto;html=1;entryX=0;entryY=0.5;entryDx=0;entryDy=0;" edge="1" parent="WIyWlLk6GJQsqaUBKTNV-1" source="4D4CAw_ETBP6nO-mCrI7-39" target="4D4CAw_ETBP6nO-mCrI7-7">
          <mxGeometry relative="1" as="geometry">
            <Array as="points">
              <mxPoint x="578" y="1270" />
              <mxPoint x="100" y="1270" />
              <mxPoint x="100" y="340" />
            </Array>
          </mxGeometry>
        </mxCell>
        <mxCell id="4D4CAw_ETBP6nO-mCrI7-39" value="spilleren vinder&amp;nbsp;" style="rounded=0;whiteSpace=wrap;html=1;" vertex="1" parent="WIyWlLk6GJQsqaUBKTNV-1">
          <mxGeometry x="527" y="1140" width="103" height="60" as="geometry" />
        </mxCell>
        <mxCell id="4D4CAw_ETBP6nO-mCrI7-83" style="edgeStyle=orthogonalEdgeStyle;rounded=0;orthogonalLoop=1;jettySize=auto;html=1;entryX=0;entryY=0.5;entryDx=0;entryDy=0;" edge="1" parent="WIyWlLk6GJQsqaUBKTNV-1" source="4D4CAw_ETBP6nO-mCrI7-40" target="4D4CAw_ETBP6nO-mCrI7-7">
          <mxGeometry relative="1" as="geometry">
            <Array as="points">
              <mxPoint x="930" y="1270" />
              <mxPoint x="100" y="1270" />
              <mxPoint x="100" y="340" />
            </Array>
          </mxGeometry>
        </mxCell>
        <mxCell id="4D4CAw_ETBP6nO-mCrI7-40" value="dealeren vinder" style="rounded=0;whiteSpace=wrap;html=1;" vertex="1" parent="WIyWlLk6GJQsqaUBKTNV-1">
          <mxGeometry x="880" y="1140" width="100" height="60" as="geometry" />
        </mxCell>
        <mxCell id="4D4CAw_ETBP6nO-mCrI7-82" style="edgeStyle=orthogonalEdgeStyle;rounded=0;orthogonalLoop=1;jettySize=auto;html=1;entryX=0;entryY=0.5;entryDx=0;entryDy=0;" edge="1" parent="WIyWlLk6GJQsqaUBKTNV-1" source="4D4CAw_ETBP6nO-mCrI7-41" target="4D4CAw_ETBP6nO-mCrI7-7">
          <mxGeometry relative="1" as="geometry">
            <mxPoint x="350" y="350" as="targetPoint" />
            <Array as="points">
              <mxPoint x="730" y="1270" />
              <mxPoint x="100" y="1270" />
              <mxPoint x="100" y="340" />
            </Array>
          </mxGeometry>
        </mxCell>
        <mxCell id="4D4CAw_ETBP6nO-mCrI7-41" value="uafgjort" style="rounded=0;whiteSpace=wrap;html=1;" vertex="1" parent="WIyWlLk6GJQsqaUBKTNV-1">
          <mxGeometry x="683.5" y="1140" width="93" height="60" as="geometry" />
        </mxCell>
        <mxCell id="4D4CAw_ETBP6nO-mCrI7-43" value="nej" style="text;html=1;align=center;verticalAlign=middle;resizable=0;points=[];autosize=1;strokeColor=none;fillColor=none;" vertex="1" parent="WIyWlLk6GJQsqaUBKTNV-1">
          <mxGeometry x="922" y="763" width="40" height="30" as="geometry" />
        </mxCell>
        <mxCell id="4D4CAw_ETBP6nO-mCrI7-71" style="edgeStyle=orthogonalEdgeStyle;rounded=0;orthogonalLoop=1;jettySize=auto;html=1;entryX=0.5;entryY=0;entryDx=0;entryDy=0;" edge="1" parent="WIyWlLk6GJQsqaUBKTNV-1" source="4D4CAw_ETBP6nO-mCrI7-44" target="4D4CAw_ETBP6nO-mCrI7-68">
          <mxGeometry relative="1" as="geometry" />
        </mxCell>
        <mxCell id="4D4CAw_ETBP6nO-mCrI7-79" style="edgeStyle=orthogonalEdgeStyle;rounded=0;orthogonalLoop=1;jettySize=auto;html=1;entryX=0.5;entryY=0;entryDx=0;entryDy=0;" edge="1" parent="WIyWlLk6GJQsqaUBKTNV-1" source="4D4CAw_ETBP6nO-mCrI7-44" target="4D4CAw_ETBP6nO-mCrI7-39">
          <mxGeometry relative="1" as="geometry" />
        </mxCell>
        <mxCell id="4D4CAw_ETBP6nO-mCrI7-44" value="spiller score&amp;nbsp;&lt;div&gt;&lt;span style=&quot;background-color: transparent; color: light-dark(rgb(0, 0, 0), rgb(255, 255, 255));&quot;&gt;&amp;gt;&lt;/span&gt;&lt;div&gt;&lt;span style=&quot;background-color: transparent; color: light-dark(rgb(0, 0, 0), rgb(255, 255, 255));&quot;&gt;dealer score&lt;/span&gt;&lt;span style=&quot;background-color: transparent; color: light-dark(rgb(0, 0, 0), rgb(255, 255, 255));&quot;&gt;&amp;nbsp;&lt;/span&gt;&lt;/div&gt;&lt;/div&gt;" style="rhombus;whiteSpace=wrap;html=1;" vertex="1" parent="WIyWlLk6GJQsqaUBKTNV-1">
          <mxGeometry x="666.5" y="906" width="127" height="80" as="geometry" />
        </mxCell>
        <mxCell id="4D4CAw_ETBP6nO-mCrI7-51" style="edgeStyle=orthogonalEdgeStyle;rounded=0;orthogonalLoop=1;jettySize=auto;html=1;entryX=0.5;entryY=0;entryDx=0;entryDy=0;" edge="1" parent="WIyWlLk6GJQsqaUBKTNV-1" source="4D4CAw_ETBP6nO-mCrI7-45" target="4D4CAw_ETBP6nO-mCrI7-40">
          <mxGeometry relative="1" as="geometry">
            <Array as="points">
              <mxPoint x="830" y="730" />
              <mxPoint x="830" y="810" />
              <mxPoint x="930" y="810" />
            </Array>
          </mxGeometry>
        </mxCell>
        <mxCell id="4D4CAw_ETBP6nO-mCrI7-61" style="edgeStyle=orthogonalEdgeStyle;rounded=0;orthogonalLoop=1;jettySize=auto;html=1;entryX=0.5;entryY=0;entryDx=0;entryDy=0;" edge="1" parent="WIyWlLk6GJQsqaUBKTNV-1" source="4D4CAw_ETBP6nO-mCrI7-45" target="4D4CAw_ETBP6nO-mCrI7-56">
          <mxGeometry relative="1" as="geometry" />
        </mxCell>
        <mxCell id="4D4CAw_ETBP6nO-mCrI7-45" value="spiller score&amp;nbsp;&lt;div&gt;=&amp;lt;&lt;/div&gt;&lt;div&gt;21&lt;/div&gt;" style="rhombus;whiteSpace=wrap;html=1;" vertex="1" parent="WIyWlLk6GJQsqaUBKTNV-1">
          <mxGeometry x="660" y="690" width="140" height="80" as="geometry" />
        </mxCell>
        <mxCell id="4D4CAw_ETBP6nO-mCrI7-47" value="ja" style="text;html=1;align=center;verticalAlign=middle;resizable=0;points=[];autosize=1;strokeColor=none;fillColor=none;" vertex="1" parent="WIyWlLk6GJQsqaUBKTNV-1">
          <mxGeometry x="497" y="834" width="30" height="30" as="geometry" />
        </mxCell>
        <mxCell id="4D4CAw_ETBP6nO-mCrI7-52" value="ja" style="text;html=1;align=center;verticalAlign=middle;resizable=0;points=[];autosize=1;strokeColor=none;fillColor=none;rotation=0;" vertex="1" parent="WIyWlLk6GJQsqaUBKTNV-1">
          <mxGeometry x="793.5" y="1020" width="30" height="30" as="geometry" />
        </mxCell>
        <mxCell id="4D4CAw_ETBP6nO-mCrI7-53" value="nej" style="text;html=1;align=center;verticalAlign=middle;resizable=0;points=[];autosize=1;strokeColor=none;fillColor=none;" vertex="1" parent="WIyWlLk6GJQsqaUBKTNV-1">
          <mxGeometry x="793.5" y="705" width="40" height="30" as="geometry" />
        </mxCell>
        <mxCell id="4D4CAw_ETBP6nO-mCrI7-54" value="ja" style="text;html=1;align=center;verticalAlign=middle;resizable=0;points=[];autosize=1;strokeColor=none;fillColor=none;" vertex="1" parent="WIyWlLk6GJQsqaUBKTNV-1">
          <mxGeometry x="613" y="920" width="30" height="30" as="geometry" />
        </mxCell>
        <mxCell id="4D4CAw_ETBP6nO-mCrI7-55" value="nej" style="text;html=1;align=center;verticalAlign=middle;resizable=0;points=[];autosize=1;strokeColor=none;fillColor=none;" vertex="1" parent="WIyWlLk6GJQsqaUBKTNV-1">
          <mxGeometry x="725" y="977" width="40" height="30" as="geometry" />
        </mxCell>
        <mxCell id="4D4CAw_ETBP6nO-mCrI7-65" style="edgeStyle=orthogonalEdgeStyle;rounded=0;orthogonalLoop=1;jettySize=auto;html=1;entryX=0.5;entryY=0;entryDx=0;entryDy=0;" edge="1" parent="WIyWlLk6GJQsqaUBKTNV-1" source="4D4CAw_ETBP6nO-mCrI7-56" target="4D4CAw_ETBP6nO-mCrI7-44">
          <mxGeometry relative="1" as="geometry" />
        </mxCell>
        <mxCell id="4D4CAw_ETBP6nO-mCrI7-78" style="edgeStyle=orthogonalEdgeStyle;rounded=0;orthogonalLoop=1;jettySize=auto;html=1;entryX=0.5;entryY=0;entryDx=0;entryDy=0;" edge="1" parent="WIyWlLk6GJQsqaUBKTNV-1" source="4D4CAw_ETBP6nO-mCrI7-56" target="4D4CAw_ETBP6nO-mCrI7-39">
          <mxGeometry relative="1" as="geometry" />
        </mxCell>
        <mxCell id="4D4CAw_ETBP6nO-mCrI7-56" value="dealer score&lt;div&gt;=&amp;lt;&lt;/div&gt;&lt;div&gt;21&lt;/div&gt;" style="rhombus;whiteSpace=wrap;html=1;" vertex="1" parent="WIyWlLk6GJQsqaUBKTNV-1">
          <mxGeometry x="665" y="800" width="130" height="80" as="geometry" />
        </mxCell>
        <mxCell id="4D4CAw_ETBP6nO-mCrI7-59" value="nej" style="text;html=1;align=center;verticalAlign=middle;resizable=0;points=[];autosize=1;strokeColor=none;fillColor=none;" vertex="1" parent="WIyWlLk6GJQsqaUBKTNV-1">
          <mxGeometry x="603" y="817" width="40" height="30" as="geometry" />
        </mxCell>
        <mxCell id="4D4CAw_ETBP6nO-mCrI7-66" value="ja" style="text;html=1;align=center;verticalAlign=middle;resizable=0;points=[];autosize=1;strokeColor=none;fillColor=none;" vertex="1" parent="WIyWlLk6GJQsqaUBKTNV-1">
          <mxGeometry x="728" y="878" width="30" height="30" as="geometry" />
        </mxCell>
        <mxCell id="4D4CAw_ETBP6nO-mCrI7-67" value="ja" style="text;html=1;align=center;verticalAlign=middle;resizable=0;points=[];autosize=1;strokeColor=none;fillColor=none;" vertex="1" parent="WIyWlLk6GJQsqaUBKTNV-1">
          <mxGeometry x="725" y="768" width="30" height="30" as="geometry" />
        </mxCell>
        <mxCell id="4D4CAw_ETBP6nO-mCrI7-77" style="edgeStyle=orthogonalEdgeStyle;rounded=0;orthogonalLoop=1;jettySize=auto;html=1;entryX=0.5;entryY=0;entryDx=0;entryDy=0;" edge="1" parent="WIyWlLk6GJQsqaUBKTNV-1" source="4D4CAw_ETBP6nO-mCrI7-68" target="4D4CAw_ETBP6nO-mCrI7-41">
          <mxGeometry relative="1" as="geometry" />
        </mxCell>
        <mxCell id="4D4CAw_ETBP6nO-mCrI7-80" style="edgeStyle=orthogonalEdgeStyle;rounded=0;orthogonalLoop=1;jettySize=auto;html=1;entryX=0.5;entryY=0;entryDx=0;entryDy=0;" edge="1" parent="WIyWlLk6GJQsqaUBKTNV-1" source="4D4CAw_ETBP6nO-mCrI7-68" target="4D4CAw_ETBP6nO-mCrI7-40">
          <mxGeometry relative="1" as="geometry" />
        </mxCell>
        <mxCell id="4D4CAw_ETBP6nO-mCrI7-68" value="spiller score&lt;div&gt;&amp;lt;&lt;/div&gt;&lt;div&gt;dealer score&lt;/div&gt;" style="rhombus;whiteSpace=wrap;html=1;" vertex="1" parent="WIyWlLk6GJQsqaUBKTNV-1">
          <mxGeometry x="665" y="1008" width="130" height="80" as="geometry" />
        </mxCell>
        <mxCell id="4D4CAw_ETBP6nO-mCrI7-74" value="nej" style="text;html=1;align=center;verticalAlign=middle;resizable=0;points=[];autosize=1;strokeColor=none;fillColor=none;" vertex="1" parent="WIyWlLk6GJQsqaUBKTNV-1">
          <mxGeometry x="720" y="1092" width="40" height="30" as="geometry" />
        </mxCell>
      </root>
    </mxGraphModel>
  </diagram>
</mxfile>
